<?xml version="1.0" encoding="utf-8"?>
<!-- Generator: Adobe Illustrator 21.0.0, SVG Export Plug-In . SVG Version: 6.00 Build 0)  -->
<svg version="1.1" id="Layer_1" xmlns="http://www.w3.org/2000/svg" xmlns:xlink="http://www.w3.org/1999/xlink" x="0px" y="0px"
	 viewBox="0 0 817 195" style="enable-background:new 0 0 817 195;" xml:space="preserve">
<style type="text/css">
	.st0{fill:#FF7A59;}
</style>
<g>
	<g>
		<path class="st0" d="M396.1,109.2c0,6.3,0.3,12.7-0.1,19c-0.5,9-7.3,2.7-10.9,4.1c-3,1.2-5.8,0.3-5.2-4.3c0.5-3.6,0-7.3,0.1-11
			c0.1-2.1-0.6-2.9-2.8-2.9c-8.2,0.1-16.3,0.1-24.5,0c-2.6,0-3.1,1.1-3,3.3c0.1,3.7-0.2,7.3,0.1,11c0.3,3.5-1.2,4.1-4.3,4.2
			c-12.3,0.1-12.4,0.2-12.3-12c0.1-11.1-0.9-22.3,0.7-33.4c2-14.1,11.3-22.6,25.5-23.4c3.5-0.2,7-0.2,10.5,0
			c15.4,0.9,25.5,11.1,26.1,26.6C396.2,96.6,396,102.9,396.1,109.2C396.1,109.2,396.1,109.2,396.1,109.2z M364.8,100.3
			c3.7,0,7.3-0.3,11,0.1c3.7,0.3,4.3-1.2,4.3-4.5c0-15.9-3.3-19.2-18.9-18.7c-9.3,0.3-11.9,4.4-11.4,19c0.3,8.3,6.7,2.7,10.1,4.1
			C361.2,100.8,363.1,100.3,364.8,100.3z"/>
		<path class="st0" d="M252.1,97.5c0-10,0.1-20-0.1-30c-0.1-3,0.7-4,3.8-4.1c12.7-0.2,12.7-0.3,12.7,12.2c0,4,0.1,8,0,12
			c-0.1,2.5,0.7,3.5,3.4,3.5c7.8-0.2,15.7-0.2,23.5,0c3,0.1,3.6-1.2,3.5-3.8c-0.1-6.5,0.1-13-0.1-19.5c-0.1-3.1,0.5-4.3,4-4.4
			C315,63.4,315,63.2,315,75.5c0,17.5-0.1,35,0.1,52.5c0,3.3-0.6,4.6-4.3,4.6c-12-0.1-12,0.1-12-11.9c0-3.8-0.2-7.7,0.1-11.5
			c0.2-3-0.5-4.5-4-4.3c-7.5,0.3-15,0.2-22.5,0c-3.2-0.1-4,1-3.9,4c0.2,6.7-0.1,13.3,0.1,20c0.1,2.9-1,3.6-3.7,3.7
			c-12.8,0.4-12.8,0.5-12.8-12C252.1,112.8,252.1,105.2,252.1,97.5z"/>
		<path class="st0" d="M469.2,97.8c0-2.3-0.2-4.7,0-7c2.1-18.8,11.7-27.2,30.8-27.2c6.4,0,12.7,0.4,18.4,3.6
			c6,3.4,9.6,8.6,11.4,15.1c2.9,10.5,3,21.1,0,31.5c-3.1,10.9-11,17.2-22.3,18.3c-2.6,0.3-5.3,0.4-8,0.3c-18.9,0-28.9-9.3-30.4-28.2
			C469,102.1,469.1,99.9,469.2,97.8C469.2,97.8,469.2,97.8,469.2,97.8z M515.6,99.4c0-19.9-3.7-23.9-19.6-22.1
			c-0.5,0.1-1,0.2-1.5,0.2c-5.1,0.6-7.7,3.6-8.5,8.4c-1.3,8.1-1.3,16.3,0.1,24.4c0.5,3,1.8,5.7,4.8,7.1c12.5,6,23.4-0.2,24.4-13.9
			C515.5,101.8,515.6,99.9,515.6,99.4z"/>
		<path class="st0" d="M745.1,97.6c0-9.8,0.3-19.7-0.1-29.5c-0.2-4.6,2.1-4.8,5.4-4.6c3,0.2,6.4-1.1,6.1,4.4c-0.5,7.3,0,14.6-0.2,22
			c-0.1,3.1,0.9,4,4,4c11-0.2,22-0.2,33,0c3.2,0.1,3.9-1.1,3.8-4c-0.2-7.3,0.1-14.7-0.1-22c-0.1-3,0.5-4.4,4-4.3
			c7.1,0.1,7.1-0.1,7.1,7.1c0,18.6-0.1,37.3,0.1,55.9c0,4.2-0.6,6-5.5,6c-5.1,0-6-1.7-5.8-6.2c0.4-6.6-0.1-13.3,0.2-20
			c0.1-3.2-0.7-4.4-4.1-4.3c-10.8,0.2-21.6,0.2-32.5,0c-3.3-0.1-4.3,1-4.2,4.2c0.2,7.3,0,14.6,0.1,22c0.1,2.8-0.4,4.2-3.7,4.2
			c-7.5,0-7.5,0.2-7.5-7.4C745.1,115.9,745.1,106.8,745.1,97.6z"/>
		<path class="st0" d="M444.3,132.2c-3.3,0-6.7,0.2-10,0c-12.5-0.9-20.4-7.2-23.6-19.3c-2.7-10.1-2.7-20.4,0.3-30.6
			c3.3-11.3,11-17.6,22.8-18.4c7.3-0.5,14.6-0.2,22-0.4c2.1,0,3.1,0.7,2.9,2.9c0,0.3,0,0.7,0,1c0.3,9.8,0.3,9.7-9.5,9.8
			c-5,0-10-0.3-15,0.4c-4.6,0.6-7.2,3.3-8,7.6c-1.5,8.4-1.5,16.9,0,25.3c0.8,4.6,3.6,7.3,8.4,7.9c6.8,0.8,13.6,0.3,20.5,0.3
			c2.9,0,3.6,0.9,3.7,3.7c0.2,10,0.3,10-9.4,10c-1.7,0-3.3,0-5,0C444.3,132.4,444.3,132.3,444.3,132.2z"/>
		<path class="st0" d="M648.9,102.2c-5.3,0-10.7,0.1-16,0c-2.4-0.1-3.4,0.8-3.2,3.2c0.2,2,0.1,4,0.4,6c1.2,8.6,5.2,12.3,13.9,12.5
			c6.8,0.2,13.7,0.3,20.5,0c3.6-0.2,3.7,1.6,3.5,4.2c-0.1,2.3,0.5,4.6-3.4,4.5c-7.3-0.3-14.7,0.1-22-0.3
			c-13.3-0.7-20.6-6.8-23.2-19.8c-2-10.2-2-20.6,0.4-30.7c2.5-10.7,9.7-17,20.7-17.7c8.1-0.5,16.3-0.2,24.5-0.4
			c3.7-0.1,2.8,2.3,2.9,4.4c0,2,0.8,4.4-2.9,4.2c-7-0.2-14-0.2-21,0c-10.3,0.3-17.2,10.1-14.3,20c0.7,2.5,2.6,1.7,4,1.7
			c10,0.1,20,0.2,30-0.1c3.7-0.1,4.3,1.2,4.4,4.5c0,3.4-1.1,4.2-4.3,4.1C658.9,102.1,653.9,102.2,648.9,102.2z"/>
		<path class="st0" d="M26.9,98.5c0,12.3-0.1,24.6,0.1,36.9c0,3.2-0.5,4.7-4.3,4.7C11,140,11,140.2,11,128.5
			c0-22.5,0.1-44.9-0.1-67.4c0-4.2,1.2-5.3,5.3-5.2C26.9,56.2,26.9,56,26.9,67C26.9,77.5,26.9,88,26.9,98.5z"/>
		<path class="st0" d="M107,98.1c0,12.6-0.1,25.3,0.1,37.9c0,3.1-0.9,3.9-4,3.9C91,140.2,91,140.3,91,128.3
			c0-22.5,0.1-44.9-0.1-67.4c0-4,1.1-5,5-5C107,56.2,107,56,107,67.2C107,77.5,107,87.8,107,98.1z"/>
		<path class="st0" d="M187,98.5c0,12.5-0.1,25,0.1,37.4c0,2.9-0.6,4-3.8,4.1c-12.2,0.2-12.2,0.3-12.2-12.1
			c0-22.5,0.1-44.9-0.1-67.4c0-3.4,0.7-4.6,4.3-4.6C187,56,187,55.9,187,67.6C187,77.9,187,88.2,187,98.5z"/>
		<path class="st0" d="M99,8c12.1,0,24.3,0.1,36.4-0.1c3.2,0,4.7,0.5,4.7,4.2c0,12,0.1,12-11.9,12c-21.6,0-43.2-0.1-64.9,0.1
			c-3.9,0-5.5-0.6-5.4-5C58.2,8,58,8,69,8C79,8,89,8,99,8z"/>
		<path class="st0" d="M98.9,188c-12.3,0-24.6-0.1-36.9,0.1c-2.9,0-4-0.6-4.1-3.8c-0.2-12.4-0.3-12.4,11.9-12.4
			c21.8,0,43.6,0.1,65.4-0.1c3.6,0,4.9,0.7,4.8,4.6c-0.1,11.6,0,11.6-11.7,11.6C118.5,188,108.7,188,98.9,188z"/>
		<path class="st0" d="M716.2,132.7c-5-0.3-10-0.1-14.9-0.9c-10.6-1.7-17.2-9.3-18.8-22.2c-1.1-8.7-1.2-17.6,0.6-26.4
			c2.5-12,9.9-18.7,22.1-19.3c7.8-0.4,15.7-0.1,23.5-0.3c3.6-0.1,2.9,2.3,2.9,4.4c0,2.1,0.6,4.4-3,4.2c-6.8-0.2-13.7-0.1-20.5,0
			c-9,0.2-12.9,3.3-14.2,12.1c-1.4,9.1-1.3,18.3,0,27.4c1.3,9.1,5.2,12.2,14.5,12.3c6.5,0.1,13,0.2,19.5,0c3.3-0.1,3.9,1.2,3.8,4.1
			c-0.1,2.7,0.1,4.9-3.8,4.6c-3.8-0.3-7.7-0.1-11.5-0.1C716.2,132.5,716.2,132.6,716.2,132.7z"/>
		<path class="st0" d="M576.7,63.6c9.2,0,18.3,0.2,27.5-0.1c3.8-0.1,3.7,1.8,3.9,4.6c0.1,3-0.7,4.1-3.9,4
			c-5.8-0.3-11.7,0.2-17.5-0.2c-3.6-0.2-4.8,0.7-4.7,4.6c0.2,17-0.1,34,0.2,50.9c0.1,4.5-1.6,5.2-5.4,5c-3.5-0.2-6.1,0.4-6-5
			c0.4-16.8,0-33.6,0.3-50.4c0.1-4.3-1.3-5.3-5.3-5.1c-5.8,0.3-11.7-0.1-17.5,0.2c-3.4,0.2-3.4-1.6-3.2-4c0.1-2.2-0.8-4.7,3.2-4.6
			C557.7,63.8,567.2,63.6,576.7,63.6z"/>
	</g>
</g>
</svg>
